<svg xmlns="http://www.w3.org/2000/svg" width="20.5" height="24.6" viewBox="0 0 20.5 24.6">
  <g id="Grupo_10616" data-name="Grupo 10616" transform="translate(-822.5 -366)">
    <g id="Grupo_10612" data-name="Grupo 10612" transform="translate(822.5 373.927)">
      <path id="Caminho_1917" data-name="Caminho 1917" d="M829.166,382.67l.788.8H823.76a1.271,1.271,0,0,0,0,2.542h6.194l-.788.8a1.279,1.279,0,0,0,0,1.8,1.251,1.251,0,0,0,1.781,0l2.938-2.966a1.272,1.272,0,0,0,.367-.813c0-.028,0-.057,0-.085a1.471,1.471,0,0,0-.009-.155,1.273,1.273,0,0,0-.3-.675c-.022-.027-.046-.051-.07-.075l-2.932-2.959a1.251,1.251,0,0,0-1.781,0A1.279,1.279,0,0,0,829.166,382.67Z" transform="translate(-822.5 -380.5)" fill="#f65151"/>
    </g>
    <g id="Grupo_10613" data-name="Grupo 10613" transform="translate(823.867 376.39)">
      <path id="Caminho_1918" data-name="Caminho 1918" d="M825,385.006" transform="translate(-825 -385.006)" fill="#f65151" stroke="#000" stroke-linecap="round" stroke-linejoin="round" stroke-width="4"/>
    </g>
    <g id="Grupo_10614" data-name="Grupo 10614" transform="translate(822.773 366)">
      <path id="Caminho_1919" data-name="Caminho 1919" d="M839.8,390.6H826.429A3.433,3.433,0,0,1,823,387.171v-5.864a1.093,1.093,0,1,1,2.187,0v5.864a1.244,1.244,0,0,0,1.243,1.243H839.8a1.244,1.244,0,0,0,1.243-1.243V369.43a1.244,1.244,0,0,0-1.243-1.243H826.429a1.244,1.244,0,0,0-1.243,1.243v5.317a1.093,1.093,0,1,1-2.187,0V369.43a3.433,3.433,0,0,1,3.429-3.43H839.8a3.433,3.433,0,0,1,3.429,3.43v17.741A3.433,3.433,0,0,1,839.8,390.6Z" transform="translate(-823 -366)" fill="#f65151"/>
    </g>
    <g id="Grupo_10615" data-name="Grupo 10615" transform="translate(836.44 380.76)">
      <path id="Caminho_1920" data-name="Caminho 1920" d="M848,393" transform="translate(-848 -393)" fill="#f65151" stroke="#000" stroke-linecap="round" stroke-miterlimit="10" stroke-width="4"/>
    </g>
  </g>
</svg>
