<svg xmlns="http://www.w3.org/2000/svg" width="41" height="41" viewBox="0 0 41 41">
  <g id="Grupo_15" data-name="Grupo 15" transform="translate(-0.322 -0.361)">
    <circle id="Elipse_1" data-name="Elipse 1" cx="20.5" cy="20.5" r="20.5" transform="translate(0.322 0.361)" fill="#9e21fd" opacity="0.13"/>
    <g id="Grupo_12" data-name="Grupo 12" transform="translate(11.067 6.462)">
      <path id="Caminho_23" data-name="Caminho 23" d="M1058.395,317h-12.875a2.519,2.519,0,0,0-2.519,2.519v1.9a5.79,5.79,0,0,0,1.269,3.616l4.112,5.14a.489.489,0,0,1,.006.6l-4.148,5.392a5.974,5.974,0,0,0-1.238,3.641v1.9h0a2.519,2.519,0,0,0,2.519,2.519h12.875a2.519,2.519,0,0,0,2.519-2.519v-1.9a5.974,5.974,0,0,0-1.238-3.641l-4.148-5.392a.489.489,0,0,1,.006-.6l4.112-5.14a5.79,5.79,0,0,0,1.269-3.616v-1.9h0A2.519,2.519,0,0,0,1058.395,317Zm.37,4.418a3.65,3.65,0,0,1-.8,2.274l-4.112,5.14a2.633,2.633,0,0,0-.031,3.257l4.148,5.393a3.841,3.841,0,0,1,.792,2.33v1.9a.37.37,0,0,1-.37.37h-12.875a.37.37,0,0,1-.37-.37v-1.9a3.842,3.842,0,0,1,.793-2.33l4.148-5.393a2.633,2.633,0,0,0-.031-3.257l-4.112-5.14a3.65,3.65,0,0,1-.8-2.274v-1.9a.37.37,0,0,1,.37-.37h12.875a.37.37,0,0,1,.37.37Z" transform="translate(-1043 -317)" fill="#8f00fc"/>
      <path id="Caminho_24" data-name="Caminho 24" d="M1049,347.075a1.075,1.075,0,0,0,1.075,1.075h7.166a1.075,1.075,0,0,0,0-2.15h-7.166A1.075,1.075,0,0,0,1049,347.075Z" transform="translate(-1044.701 -325.22)" fill="#8f00fc"/>
    </g>
  </g>
</svg>
