<svg xmlns="http://www.w3.org/2000/svg" width="42" height="43" viewBox="0 0 42 43">
  <g id="Grupo_11" data-name="Grupo 11" transform="translate(-0.322 0.282)">
    <ellipse id="Elipse_1" data-name="Elipse 1" cx="21" cy="21.5" rx="21" ry="21.5" transform="translate(0.322 -0.282)" fill="#9e21fd" opacity="0.13"/>
    <g id="Grupo_10" data-name="Grupo 10" transform="translate(9.063 8.809)">
      <path id="Caminho_20" data-name="Caminho 20" d="M967.45,257.043h-3.844v-1.879A1.164,1.164,0,0,0,962.443,254h-4.367a1.164,1.164,0,0,0-1.164,1.164v1.879h-3.235A4.682,4.682,0,0,0,949,261.72v14.99a4.682,4.682,0,0,0,4.677,4.677H967.45a4.682,4.682,0,0,0,4.677-4.677V261.72A4.682,4.682,0,0,0,967.45,257.043Zm-8.713-1.217h3.043v4.869h-3.043ZM970.3,276.711a2.855,2.855,0,0,1-2.851,2.851H953.677a2.855,2.855,0,0,1-2.851-2.851V261.72a2.855,2.855,0,0,1,2.851-2.851h3.235v2.488a1.164,1.164,0,0,0,1.164,1.164h4.367a1.164,1.164,0,0,0,1.164-1.164v-2.488h3.844a2.855,2.855,0,0,1,2.851,2.851Z" transform="translate(-949 -254)" fill="#8f00fc"/>
      <path id="Caminho_21" data-name="Caminho 21" d="M964.956,277.912A3.956,3.956,0,1,0,961,273.956,3.956,3.956,0,0,0,964.956,277.912Zm0-6.086a2.13,2.13,0,1,1-2.13,2.13A2.132,2.132,0,0,1,964.956,271.826Z" transform="translate(-953.697 -260.262)" fill="#8f00fc"/>
      <path id="Caminho_22" data-name="Caminho 22" d="M963.782,284a6.125,6.125,0,0,0-5.717,3.617.913.913,0,0,0,1.693.683,4.508,4.508,0,0,1,8.045-.005.913.913,0,1,0,1.7-.678A6.125,6.125,0,0,0,963.782,284Z" transform="translate(-952.522 -265.742)" fill="#8f00fc"/>
    </g>
  </g>
</svg>
