<svg xmlns="http://www.w3.org/2000/svg" width="43" height="42" viewBox="0 0 43 42">
  <g id="Grupo_32" data-name="Grupo 32" transform="translate(0.274 -0.103)">
    <ellipse id="Elipse_2" data-name="Elipse 2" cx="21.5" cy="21" rx="21.5" ry="21" transform="translate(-0.274 0.103)" fill="#9e21fd" opacity="0.13"/>
    <g id="Grupo_31" data-name="Grupo 31" transform="translate(9.219 11.587)">
      <path id="Caminho_39" data-name="Caminho 39" d="M1003.59,124.743h-1.511a2.268,2.268,0,0,0,.539-1.473v-8.482a2.112,2.112,0,0,0-2.023-2.186h-2.838v-3.889A1.718,1.718,0,0,0,996.043,107h-7.51a1.718,1.718,0,0,0-1.714,1.714V112.6H983.74a2.121,2.121,0,0,0-2.025,2.2v8.555a2.294,2.294,0,0,0,.465,1.386h-.951a.729.729,0,1,0,0,1.458h22.361a.729.729,0,1,0,0-1.458ZM990.966,122h2.889a.406.406,0,0,1,.014.069v2.676h-2.917v-2.676A.406.406,0,0,1,990.966,122Zm9.629-8.424a1.142,1.142,0,0,1,1.051,1.213v8.482a1.142,1.142,0,0,1-1.051,1.213h-2.862a1.675,1.675,0,0,0,.024-.239v-2.229a.724.724,0,0,0,.274.054h1.458a.729.729,0,0,0,0-1.458h-1.458a.724.724,0,0,0-.274.054v-1.513H999a.729.729,0,0,0,0-1.458h-1.246v-4.12Zm-12.8-4.861a.742.742,0,0,1,.741-.741h7.51a.742.742,0,0,1,.741.741v15.531a.735.735,0,0,1-.2.5h-2.234v-2.676c0-.023-.005-.046-.007-.069h.716a.729.729,0,0,0,0-1.458H989.72a.729.729,0,0,0,0,1.458h.753c0,.023-.007.045-.007.069v2.676h-2.477a.734.734,0,0,1-.2-.5Zm-5.1,6.089a1.152,1.152,0,0,1,1.053-1.228h3.079V117.5a.722.722,0,0,0-.243-.045h-1.458a.729.729,0,1,0,0,1.458h1.458a.721.721,0,0,0,.243-.045v1.76a.732.732,0,0,0-.14-.014h-1.458a.729.729,0,0,0,0,1.458h1.458a.729.729,0,0,0,.14-.014v2.189a1.716,1.716,0,0,0,.036.348c-.013,0-.023-.007-.036-.007H983.74a1.152,1.152,0,0,1-1.053-1.228Z" transform="translate(-980.5 -107)" fill="#8f00fc"/>
      <path id="Caminho_40" data-name="Caminho 40" d="M999.527,117.312h4.535a.729.729,0,0,0,0-1.458h-4.535a.729.729,0,0,0,0,1.458Z" transform="translate(-989.903 -111.55)" fill="#8f00fc"/>
      <path id="Caminho_41" data-name="Caminho 41" d="M999.527,124.312h4.535a.729.729,0,0,0,0-1.458h-4.535a.729.729,0,0,0,0,1.458Z" transform="translate(-989.903 -115.147)" fill="#8f00fc"/>
      <path id="Caminho_42" data-name="Caminho 42" d="M999.527,130.312h4.535a.729.729,0,0,0,0-1.458h-4.535a.729.729,0,0,0,0,1.458Z" transform="translate(-989.903 -118.23)" fill="#8f00fc"/>
    </g>
  </g>
</svg>
