<svg xmlns="http://www.w3.org/2000/svg" xmlns:xlink="http://www.w3.org/1999/xlink" width="103" height="103" viewBox="0 0 103 103">
  <defs>
    <filter id="Ret창ngulo_8" x="0" y="0" width="103" height="103" filterUnits="userSpaceOnUse">
      <feOffset dy="3" input="SourceAlpha"/>
      <feGaussianBlur stdDeviation="7.5" result="blur"/>
      <feFlood flood-opacity="0.141"/>
      <feComposite operator="in" in2="blur"/>
      <feComposite in="SourceGraphic"/>
    </filter>
  </defs>
  <g id="Grupo_10626" data-name="Grupo 10626" transform="translate(-6.5 -213.5)" opacity="0.7">
    <g transform="matrix(1, 0, 0, 1, 6.5, 213.5)" filter="url(#Ret창ngulo_8)">
      <rect id="Ret창ngulo_8-2" data-name="Ret창ngulo 8" width="58" height="58" rx="14" transform="translate(22.5 19.5)" fill="#51588e" opacity="0.11"/>
    </g>
    <g id="Grupo_10625" data-name="Grupo 10625" transform="translate(-738.232 92.5)">
      <path id="Caminho_1922" data-name="Caminho 1922" d="M799.266,160.6" transform="translate(-6.136 -1.837)" fill="#8f00fc" stroke="#fff" stroke-linecap="round" stroke-miterlimit="10" stroke-width="3"/>
      <path id="Caminho_1923" data-name="Caminho 1923" d="M799.771,158.753a16,16,0,0,0-5.987-.988,5.113,5.113,0,0,0-8.876,5.022,16.213,16.213,0,0,0-2.379,4.957.96.96,0,0,0,.7,1.163.98.98,0,0,0,.234.029.962.962,0,0,0,.93-.725,14.516,14.516,0,0,1,1.731-3.791,5.108,5.108,0,0,0,8.443-4.746,14.78,14.78,0,0,1,4.573.891.96.96,0,1,0,.633-1.812Zm-10.234,5.065a3.2,3.2,0,1,1,2.781-4.75.938.938,0,0,0,.159.292,3.2,3.2,0,0,1-2.939,4.458Z" transform="translate(-0.097)" fill="#8f00fc"/>
      <path id="Caminho_1924" data-name="Caminho 1924" d="M813.729,182.573a16.022,16.022,0,0,0,3.353-5.057,5.113,5.113,0,0,0-.946-10.155,16.226,16.226,0,0,0-3.547-4.2.96.96,0,0,0-1.347.16.946.946,0,0,0-.122.2.961.961,0,0,0,.28,1.145,14.515,14.515,0,0,1,2.749,3.132,5.11,5.11,0,0,0-.028,9.342,5.154,5.154,0,0,0,.9.3,14.786,14.786,0,0,1-2.686,3.806.96.96,0,1,0,1.393,1.321Zm-.429-11.41a3.2,3.2,0,1,1,3.2,4.482.94.94,0,0,0-.331.025,3.2,3.2,0,0,1-2.864-4.507Z" transform="translate(-10.376 -2.685)" fill="#8f00fc"/>
      <path id="Caminho_1925" data-name="Caminho 1925" d="M782.266,180.3a16.027,16.027,0,0,0,2.594,5.486,5.113,5.113,0,0,0,9.181,4.441,16.2,16.2,0,0,0,5.43-.864.959.959,0,0,0,.559-1.235.942.942,0,0,0-.109-.209.961.961,0,0,0-1.125-.353,14.529,14.529,0,0,1-4.1.733,5.107,5.107,0,0,0-8.707-4.241,14.813,14.813,0,0,1-1.87-4.267.95.95,0,0,0-.136-.292.96.96,0,0,0-1.715.8Zm9.989,5.533a3.2,3.2,0,1,1-5.488.417.951.951,0,0,0,.15-.3,3.169,3.169,0,0,1,.887-.93A3.2,3.2,0,0,1,792.255,185.83Z" transform="translate(0 -8.494)" fill="#8f00fc"/>
    </g>
  </g>
</svg>
