<svg xmlns="http://www.w3.org/2000/svg" xmlns:xlink="http://www.w3.org/1999/xlink" width="103" height="103" viewBox="0 0 103 103">
  <defs>
    <filter id="Caminho_1928" x="0" y="0" width="103" height="103" filterUnits="userSpaceOnUse">
      <feOffset dy="3" input="SourceAlpha"/>
      <feGaussianBlur stdDeviation="7.5" result="blur"/>
      <feFlood flood-opacity="0.141"/>
      <feComposite operator="in" in2="blur"/>
      <feComposite in="SourceGraphic"/>
    </filter>
  </defs>
  <g id="Grupo_10628" data-name="Grupo 10628" transform="translate(-6.5 -296.5)" opacity="0.7">
    <g transform="matrix(1, 0, 0, 1, 6.5, 296.5)" filter="url(#Caminho_1928)">
      <path id="Caminho_1928-2" data-name="Caminho 1928" d="M14,0H44A14,14,0,0,1,58,14V44A14,14,0,0,1,44,58H14A14,14,0,0,1,0,44V14A14,14,0,0,1,14,0Z" transform="translate(22.5 19.5)" fill="#51588e" opacity="0.11"/>
    </g>
    <g id="Grupo_10627" data-name="Grupo 10627" transform="translate(-675.5 167.5)">
      <path id="Caminho_1926" data-name="Caminho 1926" d="M748.768,166.5H718.232a3.737,3.737,0,0,0-3.732,3.732v14.536a3.737,3.737,0,0,0,3.732,3.732h30.536a3.737,3.737,0,0,0,3.732-3.732V170.232A3.737,3.737,0,0,0,748.768,166.5Zm.732,18.268a.733.733,0,0,1-.732.732H718.232a.733.733,0,0,1-.732-.732V170.232a.733.733,0,0,1,.732-.732h30.536a.733.733,0,0,1,.732.732Z" fill="#8f00fc"/>
      <circle id="Elipse_92" data-name="Elipse 92" cx="1.5" cy="1.5" r="1.5" transform="translate(721 176)" fill="#8f00fc"/>
      <circle id="Elipse_93" data-name="Elipse 93" cx="1.5" cy="1.5" r="1.5" transform="translate(743 176)" fill="#8f00fc"/>
      <path id="Caminho_1927" data-name="Caminho 1927" d="M733.5,172.5a5,5,0,1,0,5,5A5.006,5.006,0,0,0,733.5,172.5Zm0,8a3,3,0,1,1,3-3A3,3,0,0,1,733.5,180.5Z" fill="#8f00fc"/>
    </g>
  </g>
</svg>
