<svg xmlns="http://www.w3.org/2000/svg" width="33" height="33" viewBox="0 0 33 33">
  <g id="Grupo_10603" data-name="Grupo 10603" transform="translate(0)">
    <g id="Icon" transform="translate(0 0)">
      <g id="Ellipse" transform="translate(0 0)" fill="#2e3146" stroke="#4ad991" stroke-width="1">
        <circle cx="16.5" cy="16.5" r="16.5" stroke="none"/>
        <circle cx="16.5" cy="16.5" r="16" fill="none"/>
      </g>
    </g>
    <g id="Grupo_10602" data-name="Grupo 10602" transform="translate(9.633 7.492)">
      <path id="Caminho_1914" data-name="Caminho 1914" d="M902.289,417.08a1.543,1.543,0,0,0-1.206-.58h-6.959a2.623,2.623,0,0,0-2.623,2.623V432.18a2.623,2.623,0,0,0,2.623,2.623h9.068a2.606,2.606,0,0,0,2.388-2.816V421.193Zm-.733.587,3.01,3.762h-3.473a.442.442,0,0,1-.441-.441v-3.548h.431A.6.6,0,0,1,901.555,417.666Zm1.636,16.2h-9.068a1.686,1.686,0,0,1-1.684-1.684V419.123a1.686,1.686,0,0,1,1.684-1.684h5.59v3.548a1.381,1.381,0,0,0,1.379,1.379h3.549v9.621C904.641,432.91,904.1,433.865,903.191,433.865Z" transform="translate(-891.5 -416.5)" fill="#4ad991"/>
      <path id="Caminho_1915" data-name="Caminho 1915" d="M903.491,435.226l-.441.441V432.2a.7.7,0,0,0-1.408,0v3.463l-.441-.441a.7.7,0,0,0-1,1l1.643,1.643a.7.7,0,0,0,.451.2h.047a.751.751,0,0,0,.086-.005.7.7,0,0,0,.373-.166c.015-.013.029-.026.042-.039l1.639-1.639a.7.7,0,0,0-1-1Z" transform="translate(-896.011 -424.46)" fill="#4ad991"/>
    </g>
  </g>
</svg>
